<?xml version="1.0" standalone="no"?>
<!DOCTYPE svg PUBLIC "-//W3C//DTD SVG 20010904//EN"
 "http://www.w3.org/TR/2001/REC-SVG-20010904/DTD/svg10.dtd">
<svg version="1.0" xmlns="http://www.w3.org/2000/svg"
 width="498.000000pt" height="311.000000pt" viewBox="0 0 498.000000 311.000000"
 preserveAspectRatio="xMidYMid meet">

<g transform="translate(0.000000,311.000000) scale(0.100000,-0.100000)"
fill="#000000" stroke="none">
<path d="M0 1555 l0 -1555 2490 0 2490 0 0 1555 0 1555 -2490 0 -2490 0 0
-1555z m856 1054 c-117 -139 -115 -348 7 -629 48 -110 236 -390 324 -482 26
-28 8 -32 -18 -5 -39 39 -119 144 -119 156 0 6 -4 11 -8 11 -5 0 -31 33 -57
73 -27 39 -52 74 -56 77 -9 8 -97 186 -115 232 -47 127 -57 183 -57 303 0 107
2 126 25 175 24 53 87 135 96 125 2 -2 -7 -18 -22 -36z m1071 -593 c66 -21
158 -83 198 -133 39 -48 85 -137 85 -163 0 -19 -6 -20 -110 -20 l-110 0 -47
49 c-66 67 -137 89 -237 72 -94 -16 -144 -49 -193 -127 -11 -18 -14 -16 -47
21 -20 22 -36 43 -36 46 0 3 -10 18 -23 33 -12 14 -31 39 -40 55 l-17 29 45
40 c45 39 123 83 187 104 84 28 245 25 345 -6z m634 14 c18 -10 19 -23 19
-188 0 -97 4 -181 8 -187 7 -10 294 -19 324 -9 15 4 17 27 20 189 2 101 6 186
9 190 4 3 58 7 120 8 l114 2 2 -515 3 -515 -113 -5 c-61 -3 -118 -3 -124 -1
-10 2 -13 52 -13 206 0 156 -3 205 -13 214 -21 17 -312 13 -327 -4 -7 -9 -12
-82 -13 -212 l-2 -198 -122 -3 -123 -3 0 501 c0 327 4 508 10 521 9 17 22 19
106 19 52 0 104 -5 115 -10z m824 -44 c22 -23 62 -66 89 -96 27 -30 76 -85
110 -121 33 -36 85 -93 115 -127 30 -34 59 -62 65 -62 15 0 118 107 346 359
78 86 103 103 139 94 l21 -5 0 -514 0 -513 -37 -3 c-21 -2 -76 -2 -123 0 l-85
3 1 207 c1 206 -4 256 -29 250 -7 -2 -60 -54 -117 -115 -57 -62 -106 -113
-110 -113 -4 0 -56 52 -116 115 -60 63 -114 115 -121 115 -15 0 -14 10 -17
-240 -2 -107 -3 -201 -4 -207 -2 -10 -34 -13 -122 -13 l-120 0 0 520 0 521 38
-6 c26 -5 49 -19 77 -49z m-1152 -515 c-2 -142 -31 -235 -97 -315 l-24 -28
-34 23 c-71 49 -137 104 -138 115 0 6 9 19 20 29 11 10 20 31 20 47 l0 28 -95
0 c-87 0 -95 2 -107 23 -16 30 -20 169 -5 179 7 4 113 7 237 5 l225 -2 -2
-104z m-994 -28 c29 -56 361 -356 502 -456 33 -22 59 -45 59 -49 0 -5 -16 3
-35 18 -24 18 -60 31 -113 41 -71 13 -176 51 -211 77 -34 26 -141 135 -141
145 0 5 -10 26 -22 46 -11 20 -29 65 -38 98 -10 34 -21 70 -25 80 -4 10 -3 17
4 17 5 0 15 -8 20 -17z m621 -539 c22 -15 38 -29 35 -32 -4 -5 -85 47 -85 54
0 8 12 3 50 -22z m127 -85 c35 -23 62 -44 60 -46 -2 -2 -35 17 -73 42 -38 25
-65 45 -60 45 5 0 38 -19 73 -41z m119 -74 c10 -8 15 -14 9 -14 -5 0 -19 6
-29 14 -11 8 -15 15 -10 15 6 0 19 -7 30 -15z m72 -35 c17 -11 32 -22 32 -24
0 -9 -36 6 -60 24 -33 26 -14 25 28 0z m78 -46 c18 -14 18 -14 -6 -3 -31 14
-36 19 -24 19 6 0 19 -7 30 -16z m76 -34 c18 -11 28 -20 22 -20 -13 0 -74 29
-74 36 0 9 21 3 52 -16z m63 -38 c-3 -3 -11 0 -18 7 -9 10 -8 11 6 5 10 -3 15
-9 12 -12z m45 -12 c13 -8 13 -10 -2 -10 -9 0 -20 5 -23 10 -8 13 5 13 25 0z
m70 -30 c8 -5 11 -10 5 -10 -5 0 -17 5 -25 10 -8 5 -10 10 -5 10 6 0 17 -5 25
-10z"/>
</g>
</svg>
