<svg width="13.966797" height="15.567383" viewBox="0 0 13.9668 15.5674" fill="none" xmlns="http://www.w3.org/2000/svg" xmlns:xlink="http://www.w3.org/1999/xlink">
	<desc>
			Created with Pixso.
	</desc>
	<defs/>
	<path id="Vector" d="M9.2 11.87C8.22 11.87 7.41 12.7 7.41 13.71C7.41 14.73 8.22 15.56 9.2 15.56C10.19 15.56 11 14.73 11 13.71C11.03 12.7 10.22 11.87 9.2 11.87ZM9.2 14.68C8.7 14.68 8.29 14.25 8.29 13.71C8.29 13.18 8.7 12.75 9.2 12.75C9.71 12.75 10.11 13.18 10.11 13.71C10.14 14.25 9.71 14.68 9.2 14.68Z" fill="#000000" fill-opacity="1.000000" fill-rule="nonzero"/>
	<path id="Vector" d="M3.46 11.87C2.47 11.87 1.66 12.7 1.66 13.71C1.66 14.73 2.47 15.56 3.46 15.56C4.44 15.56 5.25 14.73 5.25 13.71C5.28 12.7 4.47 11.87 3.46 11.87ZM3.46 14.68C2.95 14.68 2.55 14.25 2.55 13.71C2.55 13.18 2.95 12.75 3.46 12.75C3.96 12.75 4.37 13.18 4.37 13.71C4.39 14.25 3.96 14.68 3.46 14.68Z" fill="#000000" fill-opacity="1.000000" fill-rule="nonzero"/>
	<path id="Vector" d="M13.48 0L11.86 0C11.48 0 11.15 0.27 11.1 0.65L10.65 3.99L0.7 3.99C0.47 3.99 0.27 4.1 0.14 4.27C0.01 4.45 -0.04 4.68 0.01 4.88L0.01 4.91L1.56 9.69C1.63 9.99 1.91 10.22 2.27 10.22L9.73 10.22C10.29 10.22 10.75 9.82 10.82 9.26L11.99 0.86L13.51 0.86C13.76 0.86 13.96 0.65 13.96 0.4C13.96 0.15 13.73 0 13.48 0ZM9.91 9.13C9.89 9.23 9.81 9.34 9.68 9.34L2.34 9.34L0.9 4.88L10.49 4.88L9.91 9.13Z" fill="#000000" fill-opacity="1.000000" fill-rule="nonzero"/>
</svg>
