<svg width="18.000000" height="18.000000" viewBox="0 0 18 18" fill="none" xmlns="http://www.w3.org/2000/svg" xmlns:xlink="http://www.w3.org/1999/xlink">
	<desc>
			Created with Pixso.
	</desc>
	<defs>
		<clipPath id="clip121_56580">
			<rect id="Frame" width="18.000000" height="18.000000" fill="white" fill-opacity="0"/>
		</clipPath>
	</defs>
	<rect id="Frame" width="18.000000" height="18.000000" fill="#FFFFFF" fill-opacity="0"/>
	<g clip-path="url(#clip121_56580)">
		<path id="Vector" d="M9 7.03C7.9 7.03 7.03 7.93 7.03 9C7.03 10.06 7.93 10.96 9 10.96C10.06 10.96 10.96 10.06 10.96 9C10.96 7.93 10.09 7.03 9 7.03ZM9 9.98C8.46 9.98 8.01 9.53 8.01 9C8.01 8.46 8.46 8.01 9 8.01C9.53 8.01 9.98 8.46 9.98 9C9.98 9.53 9.53 9.98 9 9.98Z" fill="#000000" fill-opacity="1.000000" fill-rule="nonzero"/>
		<path id="Vector" d="M17.55 8.66C15.69 5.73 12.48 3.99 9 3.99C5.51 3.99 2.3 5.73 0.45 8.66C0.33 8.85 0.33 9.11 0.45 9.3C2.3 12.23 5.51 13.97 9 13.97C12.48 13.97 15.69 12.23 17.55 9.3C17.69 9.11 17.69 8.85 17.55 8.66ZM9 12.99C5.93 12.99 3.09 11.5 1.4 8.97C3.09 6.46 5.93 4.97 9 4.97C12.06 4.97 14.9 6.46 16.59 8.97C14.9 11.5 12.06 12.99 9 12.99Z" fill="#000000" fill-opacity="1.000000" fill-rule="nonzero"/>
	</g>
</svg>
