<svg width="18.000000" height="18.000000" viewBox="0 0 18 18" fill="none" xmlns="http://www.w3.org/2000/svg" xmlns:xlink="http://www.w3.org/1999/xlink">
	<desc>
			Created with Pixso.
	</desc>
	<defs>
		<clipPath id="clip121_56586">
			<rect id="Frame" width="18.000000" height="18.000000" fill="white" fill-opacity="0"/>
		</clipPath>
	</defs>
	<rect id="Frame" width="18.000000" height="18.000000" fill="#FFFFFF" fill-opacity="0"/>
	<g clip-path="url(#clip121_56586)">
		<path id="Vector" d="M9 16.7C8.66 16.7 8.29 16.59 8.04 16.34C7.39 15.77 6.75 15.24 6.18 14.76C4.52 13.35 3.09 12.14 2.08 10.94C0.9 9.53 0.33 8.18 0.33 6.69C0.33 5.23 0.84 3.88 1.77 2.89C2.7 1.88 3.99 1.32 5.4 1.32C6.44 1.32 7.42 1.65 8.26 2.3C8.52 2.5 8.77 2.72 9 2.98C9.22 2.72 9.47 2.5 9.73 2.3C10.57 1.65 11.53 1.32 12.6 1.32C14 1.32 15.27 1.88 16.22 2.89C17.15 3.88 17.66 5.23 17.66 6.69C17.66 8.18 17.1 9.53 15.91 10.94C14.9 12.14 13.47 13.35 11.81 14.76C11.25 15.24 10.6 15.77 9.95 16.34C9.7 16.56 9.33 16.7 9 16.7ZM5.4 2.27C4.27 2.27 3.23 2.72 2.5 3.54C1.74 4.35 1.35 5.45 1.35 6.66C1.35 7.9 1.82 9.05 2.84 10.29C3.79 11.44 5.2 12.62 6.83 14C7.39 14.48 8.04 15.01 8.69 15.6C8.85 15.75 9.14 15.75 9.3 15.6C9.98 15.04 10.6 14.48 11.16 14C12.79 12.62 14.2 11.44 15.16 10.29C16.17 9.05 16.65 7.9 16.65 6.66C16.65 5.45 16.22 4.35 15.49 3.54C14.73 2.72 13.72 2.27 12.6 2.27C11.75 2.27 10.99 2.53 10.35 3.06C10.06 3.26 9.84 3.51 9.59 3.79C9.45 3.96 9.22 4.07 9 4.07C8.77 4.07 8.55 3.96 8.41 3.79C8.18 3.51 7.93 3.26 7.65 3.06C7 2.55 6.24 2.27 5.4 2.27Z" fill="#212B36" fill-opacity="1.000000" fill-rule="nonzero"/>
	</g>
</svg>
