<svg width="169.000000" height="30.000000" viewBox="0 0 169 30" fill="none" xmlns="http://www.w3.org/2000/svg" xmlns:xlink="http://www.w3.org/1999/xlink">
	<desc>
			Created with Pixso.
	</desc>
	<defs/>
	<path id="Vector" d="M144.28 1.18L145.57 1.22C146.45 1.22 147.1 1.25 147.46 1.31C147.83 1.37 148.1 1.48 148.28 1.62C148.52 1.79 148.68 2.08 148.74 2.47C148.78 2.87 148.82 3.65 148.82 4.82L148.82 22.01L131.5 0.43L122.28 0.43L122.28 1.18L125.8 1.18L126.6 1.7L126.6 26.18C126.6 26.23 126.59 26.3 126.58 26.35C126.57 26.41 126.56 26.45 126.56 26.49C126.47 27.45 126.28 28.1 125.99 28.46C125.71 28.8 124.96 28.97 123.75 28.94L120.15 28.94L108.96 0L108.34 0L106.91 3.91L98.99 25.65C98.85 26.05 98.7 26.42 98.59 26.72C98.48 27.03 98.35 27.31 98.24 27.53C97.88 28.24 97.45 28.66 96.94 28.79C96.54 28.89 95.91 28.95 95.03 28.95L95.03 28.94L90.71 28.94L90.71 1.18L95.03 1.18L95.03 0.43L86.39 0.43L77.31 22.41L67.6 0.43L59.31 0.43L59.31 1.18L63.05 1.18L63.45 1.97L63.45 26.26C63.45 27.34 63.25 28.08 62.87 28.44C62.49 28.8 61.74 28.97 60.64 28.94L59.14 28.94L59.14 29.68L68.89 29.68L68.89 28.94L67.6 28.98C65.96 28.98 64.98 28.71 64.67 28.17C64.36 27.63 64.2 26.82 64.2 25.74L64.2 25.38L64.2 25.04C64.17 24.91 64.16 24.79 64.16 24.66L64.16 3.59L75.34 29.12L86.38 2.67L86.38 28.94L82.11 28.94L82.11 29.68L103.62 29.68L103.62 28.94L102.24 28.98C101.17 28.98 100.41 28.88 99.95 28.7C99.49 28.51 99.26 28.17 99.26 27.71C99.26 27.57 99.3 27.33 99.39 27.01C99.48 26.69 99.62 26.24 99.79 25.7L101.83 20.13L111.99 20.13L115.42 28.94L110.97 28.94L110.97 29.68L131.94 29.68L131.94 28.98C129.69 28.98 128.35 28.79 127.93 28.39C127.52 28 127.3 26.63 127.3 24.29L127.3 2.49L149.22 29.91L149.48 29.91L149.48 4.86C149.48 3.75 149.5 3.03 149.53 2.67C149.55 2.32 149.65 2.03 149.8 1.83C149.82 1.83 149.86 1.81 149.87 1.79C149.89 1.76 149.91 1.73 149.94 1.7C150.08 1.5 150.33 1.37 150.69 1.31C151.04 1.25 151.67 1.2 152.56 1.18L153.8 1.18L153.8 0.43L144.28 0.43L144.28 1.18L144.28 1.18ZM106.91 19.38L102.11 19.38L106.78 6.4L106.91 6.75L111.72 19.38L106.91 19.38L106.91 19.38ZM169 1.18L169 0.43L155.91 0.43L155.91 1.18L160.22 1.18L160.22 28.94L155.91 28.94L155.91 29.68L169 29.68L169 28.94L164.67 28.94L164.67 1.18L169 1.18ZM56.34 29.03C56.15 29.08 55.98 29.12 55.83 29.12C55.74 29.14 55.65 29.16 55.56 29.16L55.26 29.16C54.28 29.16 53.64 28.58 53.36 27.45C53.07 26.31 52.88 24.99 52.76 23.5C52.73 23.36 52.7 23.21 52.69 23.07C52.68 22.92 52.67 22.77 52.67 22.62C52.59 21.61 52.45 20.6 52.25 19.6C52.06 18.63 51.72 17.84 51.24 17.23C50.66 16.44 49.86 15.84 48.89 15.42C47.92 15.01 46.5 14.68 44.66 14.42C44.75 14.42 44.83 14.41 44.91 14.4C44.99 14.39 45.07 14.38 45.15 14.38C47.26 14.09 49.18 13.45 50.94 12.49C52.69 11.52 53.56 9.81 53.56 7.36C53.56 4.87 52.69 3.14 50.96 2.17C49.23 1.19 47.32 0.63 45.24 0.52C45.05 0.49 44.86 0.47 44.67 0.47C44.49 0.47 44.3 0.45 44.13 0.43L28.77 0.43L28.77 1.18L33.09 1.18L33.09 28.94L25.86 28.94L14.69 0L14.07 0L12.64 3.91L4.71 25.65C4.56 26.05 4.43 26.42 4.32 26.72C4.2 27.03 4.08 27.31 3.95 27.53C3.6 28.24 3.17 28.66 2.67 28.79C2.17 28.92 1.27 28.97 0 28.94L0 29.68L9.34 29.68L9.34 28.94L7.96 28.98C6.89 28.98 6.14 28.88 5.67 28.7C5.21 28.51 4.98 28.17 4.98 27.71C4.98 27.57 5.03 27.33 5.12 27.01C5.2 26.69 5.33 26.24 5.51 25.7L7.56 20.13L17.72 20.13L21.15 28.94L16.69 28.94L16.69 29.68L42.04 29.68L42.04 28.94L37.45 28.94L37.45 14.77L39.19 14.81C40.79 14.81 42.14 14.91 43.21 15.12C44.59 15.38 45.54 15.81 46.04 16.42C46.92 17.48 47.53 19.38 47.86 22.1C47.92 22.44 47.98 22.8 48 23.15C48.03 23.5 48.08 23.87 48.13 24.25C48.37 26.38 48.91 27.88 49.76 28.73C50.6 29.56 51.97 30 53.83 30C54.31 30 54.75 29.97 55.14 29.93C55.54 29.88 55.94 29.8 56.32 29.68C56.5 29.68 56.67 29.65 56.84 29.6C57.01 29.54 57.18 29.46 57.35 29.38L57.08 28.8C56.78 28.89 56.53 28.97 56.34 29.03ZM12.64 19.38L7.83 19.38L12.5 6.4L12.64 6.75L17.45 19.38L12.64 19.38L12.64 19.38ZM41.1 13.99C40.47 14.04 39.84 14.08 39.22 14.09C38.61 14.1 38.01 14.1 37.44 14.07L37.44 1.18L39 1.22C40.71 1.22 42.12 1.28 43.21 1.4C43.87 1.48 44.41 1.57 44.84 1.68C45.99 1.99 46.95 2.62 47.68 3.59C47.95 3.94 48.19 4.36 48.38 4.86C48.57 5.35 48.73 5.85 48.85 6.36C48.87 6.58 48.9 6.82 48.94 7.06C48.96 7.28 48.98 7.5 48.98 7.72C48.98 10.04 48.16 11.65 46.5 12.5C45.46 13.03 44.36 13.42 43.21 13.68C42.52 13.83 41.82 13.93 41.1 13.99Z" fill="#3F3F3F" fill-opacity="1.000000" fill-rule="evenodd"/>
</svg>
