<svg width="125.725525" height="28.515381" viewBox="0 0 125.726 28.5154" fill="none" xmlns="http://www.w3.org/2000/svg" xmlns:xlink="http://www.w3.org/1999/xlink">
	<desc>
			Created with Pixso.
	</desc>
	<defs/>
	<path id="Vector" d="M114.06 8.33L113.83 8.41C112.95 6.34 111.69 4.69 110.05 3.47C108.44 2.24 106.41 1.63 103.97 1.63C102.61 1.63 101.31 1.94 100.08 2.57C98.85 3.17 97.76 4.03 96.83 5.14C95.93 6.23 95.19 7.55 94.64 9.11C94.09 10.66 93.81 12.37 93.81 14.25C93.81 16.13 94.09 17.85 94.64 19.4C95.2 20.95 95.93 22.29 96.83 23.4C97.76 24.49 98.85 25.34 100.08 25.94C101.31 26.54 102.61 26.84 103.97 26.84C106.39 26.84 108.35 26.43 109.86 25.61C111.4 24.77 112.7 23.48 113.75 21.77L113.98 21.85L113.91 24.47C113.33 25.12 112.66 25.7 111.9 26.22C111.15 26.71 110.33 27.14 109.45 27.49C108.59 27.82 107.7 28.06 106.77 28.22C105.83 28.41 104.9 28.51 103.97 28.51C102.03 28.51 100.18 28.17 98.42 27.49C96.66 26.81 95.11 25.85 93.77 24.63C92.44 23.38 91.38 21.88 90.6 20.14C89.82 18.37 89.43 16.4 89.43 14.25C89.43 12.1 89.82 10.15 90.6 8.41C91.38 6.64 92.44 5.13 93.77 3.88C95.11 2.62 96.66 1.67 98.42 1.02C100.18 0.34 102.03 0 103.97 0C104.9 0 105.83 0.08 106.77 0.24C107.7 0.4 108.59 0.66 109.45 1.02C110.33 1.34 111.15 1.77 111.9 2.28C112.66 2.77 113.33 3.34 113.91 4L114.06 8.33Z" fill="#3F3F3F" fill-opacity="1.000000" fill-rule="nonzero"/>
	<path id="Vector" d="M27.21 16.13C26.93 16.27 26.66 16.44 26.4 16.66C26.15 16.88 26.02 17.18 26.02 17.56L26.02 22.59C24.78 24.47 23.2 25.92 21.27 26.96C19.34 27.99 17.2 28.51 14.86 28.51C12.88 28.51 10.99 28.17 9.18 27.49C7.38 26.81 5.8 25.85 4.43 24.63C3.07 23.38 1.99 21.88 1.19 20.14C0.39 18.36 0 16.4 0 14.25C0 12.1 0.39 10.15 1.19 8.41C1.99 6.64 3.07 5.13 4.43 3.88C5.8 2.62 7.38 1.67 9.18 1.02C10.99 0.34 12.88 0 14.86 0C15.81 0 16.76 0.08 17.72 0.24C18.67 0.4 19.58 0.66 20.46 1.02C21.36 1.34 22.19 1.77 22.97 2.28C23.74 2.77 24.42 3.34 25.01 4L25.17 8.33L24.94 8.41C24.04 6.34 22.75 4.69 21.08 3.47C19.43 2.24 17.36 1.63 14.86 1.63C13.47 1.63 12.14 1.94 10.88 2.57C9.62 3.17 8.52 4.03 7.56 5.14C6.64 6.23 5.89 7.55 5.32 9.11C4.76 10.66 4.47 12.37 4.47 14.25C4.47 16.1 4.74 17.81 5.29 19.36C5.85 20.91 6.6 22.25 7.52 23.36C8.48 24.45 9.58 25.31 10.84 25.94C12.11 26.53 13.44 26.83 14.86 26.83C17.54 26.83 19.83 26.29 21.73 25.2L21.73 17.56C21.73 17.18 21.59 16.88 21.31 16.66C21.05 16.44 20.79 16.27 20.54 16.13L20.57 15.93C20.7 15.95 20.93 15.98 21.27 16.01C21.6 16.03 21.95 16.06 22.31 16.09L25.63 16.09C25.94 16.06 26.23 16.04 26.52 16.01C26.8 15.98 27.02 15.96 27.17 15.93L27.21 16.13Z" fill="#3F3F3F" fill-opacity="1.000000" fill-rule="nonzero"/>
	<path id="Vector" d="M55.73 1.49C55.48 1.62 55.23 1.8 54.98 2.01C54.72 2.22 54.59 2.62 54.56 3.21C54.54 3.85 54.51 4.66 54.48 5.64C54.48 6.6 54.47 7.69 54.45 8.92C54.45 10.14 54.44 11.47 54.42 12.91L54.42 17.38C54.39 19.1 54.19 20.58 53.81 21.81C53.44 23.03 52.93 24.05 52.3 24.88C51.7 25.7 51.02 26.36 50.27 26.83C49.54 27.31 48.81 27.67 48.08 27.91C47.38 28.18 46.71 28.34 46.08 28.39C45.45 28.47 44.96 28.51 44.61 28.51C43.18 28.51 41.79 28.31 40.46 27.91C39.13 27.54 37.96 26.93 36.95 26.08C35.95 25.22 35.14 24.12 34.54 22.76C33.94 21.41 33.64 19.76 33.64 17.81L33.64 13.3L33.64 9.15C33.64 7.88 33.62 6.73 33.6 5.72C33.6 4.68 33.59 3.85 33.57 3.21C33.54 2.62 33.41 2.22 33.15 2.01C32.9 1.8 32.65 1.62 32.4 1.49L32.43 1.29C32.56 1.32 32.76 1.34 33.04 1.37C33.34 1.4 33.64 1.42 33.94 1.45C34.27 1.45 34.58 1.46 34.88 1.49L36.24 1.49C36.54 1.46 36.86 1.45 37.18 1.45C37.51 1.43 37.81 1.4 38.09 1.37C38.39 1.35 38.61 1.32 38.73 1.29L38.77 1.49C38.49 1.62 38.22 1.8 37.97 2.01C37.75 2.22 37.62 2.62 37.6 3.21C37.57 3.85 37.55 4.68 37.52 5.72L37.52 17.81C37.52 20.71 38.16 22.86 39.44 24.24C40.73 25.62 42.62 26.32 45.14 26.32C45.87 26.32 46.7 26.22 47.63 26.04C48.56 25.82 49.43 25.4 50.23 24.76C51.06 24.12 51.75 23.22 52.3 22.04C52.88 20.87 53.17 19.32 53.17 17.38C53.17 15.27 53.16 13.48 53.14 11.99C53.14 10.47 53.13 9.18 53.1 8.12C53.1 7.02 53.09 6.09 53.07 5.32C53.05 4.55 53.02 3.85 52.99 3.21C52.97 2.62 52.83 2.22 52.58 2.01C52.33 1.8 52.08 1.62 51.82 1.49L51.86 1.29C52.14 1.34 52.45 1.4 52.8 1.45C53.15 1.48 53.48 1.49 53.78 1.49C54.06 1.49 54.37 1.48 54.72 1.45C55.1 1.4 55.43 1.35 55.71 1.29L55.73 1.49Z" fill="#3F3F3F" fill-opacity="1.000000" fill-rule="nonzero"/>
	<path id="Vector" d="M84.24 8.33L84.01 8.41C83.08 6.34 81.75 4.69 80.03 3.47C78.33 2.24 76.2 1.63 73.63 1.63C72.2 1.63 70.83 1.94 69.53 2.57C68.23 3.17 67.1 4.03 66.11 5.14C65.16 6.23 64.39 7.55 63.81 9.11C63.23 10.66 62.93 12.37 62.93 14.25C62.93 16.13 63.23 17.85 63.81 19.4C64.39 20.95 65.16 22.29 66.11 23.4C67.1 24.49 68.23 25.34 69.53 25.94C70.83 26.54 72.2 26.84 73.63 26.84C76.17 26.84 78.24 26.43 79.83 25.61C81.45 24.77 82.81 23.48 83.93 21.77L84.16 21.85L84.09 24.47C83.48 25.12 82.77 25.7 81.98 26.22C81.18 26.71 80.32 27.14 79.39 27.49C78.49 27.82 77.55 28.06 76.57 28.22C75.59 28.41 74.61 28.51 73.63 28.51C71.59 28.51 69.64 28.17 67.78 27.49C65.93 26.81 64.3 25.85 62.89 24.63C61.49 23.38 60.38 21.88 59.55 20.14C58.73 18.37 58.32 16.4 58.32 14.25C58.32 12.1 58.73 10.15 59.55 8.41C60.38 6.64 61.49 5.13 62.89 3.88C64.3 2.62 65.93 1.67 67.78 1.02C69.64 0.34 71.59 0 73.63 0C74.61 0 75.59 0.08 76.57 0.24C77.55 0.4 78.49 0.66 79.39 1.02C80.32 1.34 81.18 1.77 81.98 2.28C82.77 2.77 83.48 3.34 84.09 4L84.24 8.33Z" fill="#3F3F3F" fill-opacity="1.000000" fill-rule="nonzero"/>
	<path id="Vector" d="M125.69 25.91C125.56 25.89 125.34 25.86 125.03 25.84C124.75 25.84 124.45 25.83 124.11 25.8C123.78 25.8 123.46 25.79 123.15 25.77L120.85 25.77C120.54 25.79 120.24 25.82 119.93 25.84C119.65 25.87 119.43 25.89 119.28 25.92L119.24 25.77C119.5 25.65 119.75 25.49 120.01 25.29C120.26 25.09 120.4 24.72 120.43 24.18C120.45 23.58 120.47 22.97 120.47 22.33C120.49 21.68 120.5 20.96 120.5 20.14L120.5 17.36L120.5 13.62L120.5 9.88L120.5 7.07C120.5 6.26 120.49 5.54 120.47 4.92C120.47 4.28 120.45 3.66 120.43 3.07C120.41 2.53 120.27 2.16 120.01 1.96C119.75 1.74 119.5 1.57 119.24 1.44L119.28 1.29C119.43 1.34 119.65 1.38 119.93 1.41C120.24 1.41 120.54 1.42 120.85 1.44C121.18 1.46 121.5 1.47 121.81 1.47L123.15 1.47C123.46 1.45 123.78 1.44 124.11 1.44C124.44 1.42 124.75 1.39 125.03 1.37C125.34 1.34 125.56 1.32 125.69 1.29L125.72 1.44C125.44 1.56 125.17 1.74 124.91 1.96C124.68 2.16 124.56 2.53 124.53 3.07C124.51 3.66 124.48 4.28 124.45 4.92L124.45 22.32C124.48 22.97 124.5 23.58 124.53 24.17C124.55 24.72 124.68 25.09 124.91 25.29C125.17 25.48 125.44 25.64 125.72 25.77L125.69 25.91Z" fill="#3F3F3F" fill-opacity="1.000000" fill-rule="nonzero"/>
</svg>
