<svg width="135.125000" height="27.024902" viewBox="0 0 135.125 27.0249" fill="none" xmlns="http://www.w3.org/2000/svg" xmlns:xlink="http://www.w3.org/1999/xlink">
	<desc>
			Created with Pixso.
	</desc>
	<defs/>
	<path id="Vector" d="M121.89 0.53L135.12 0.53L135.12 2.65C134.74 2.52 134.33 2.45 133.93 2.45L126.32 2.45L126.32 12.34L133.72 12.34C134.25 12.34 134.73 12.28 135.12 12.18L135.12 14.29C134.78 14.21 134.32 14.17 133.75 14.17L126.32 14.17L126.32 24.4L133.7 24.4C134.1 24.4 134.59 24.34 135.12 24.21L135.12 26.49L121.91 26.49C122.01 26.11 122.07 25.71 122.07 25.26L122.07 1.79C122.07 1.27 122.01 0.85 121.89 0.53ZM118.82 7.27L115 7.24C114.81 5.08 113.58 2.99 110.87 2.61C105.07 2.08 103.43 8.48 103.58 13.16C103.73 17.67 104.45 24.61 110.44 24.61C112.95 24.61 115.36 22.01 115.29 19.83L118.82 19.8C118.57 24.31 113.41 26.92 110.96 27.01C102.58 27.3 99.07 21.69 98.89 13.68C98.73 6.43 101.69 0 109.98 0C117.07 0.09 118.44 4.31 118.82 7.27ZM59.2 23.54L61.73 21.41C63.05 23.6 64.13 24.6 66.76 24.6C69.42 24.6 71.65 22.97 71.65 20.11C71.65 18.69 71.08 17.53 69.95 16.66C69.44 16.26 68.13 15.56 66.09 14.58C63.02 13.1 60.04 11.18 60.04 7.33C60.04 2.46 64.15 0.31 68.5 0.15C71.07 0.06 74.26 1.48 75.55 3.08L72.98 5.07C72.52 4.21 71.84 3.49 71.01 2.99C70.18 2.49 69.22 2.22 68.25 2.22C64.97 2.22 62.37 6.04 65.09 8.67C65.78 9.34 67.19 10.17 69.34 11.16C72.77 12.78 75.69 14.71 75.69 18.97C75.69 20.44 75.31 21.82 74.55 23.07C73.02 25.61 70.47 26.87 66.9 26.87C62.8 26.87 62 25.93 59.2 23.54ZM23.12 0.53L36.34 0.53L36.34 2.65C35.96 2.52 35.55 2.45 35.15 2.45L27.54 2.45L27.54 12.34L34.94 12.34C35.47 12.34 35.95 12.28 36.34 12.18L36.34 14.29C36.01 14.21 35.54 14.17 34.98 14.17L27.54 14.17L27.54 24.4L34.92 24.4C35.33 24.4 35.81 24.34 36.34 24.21L36.34 26.49L23.14 26.49C23.23 26.11 23.29 25.71 23.29 25.26L23.29 1.79C23.29 1.27 23.23 0.85 23.12 0.53ZM0 0.53L4.8 0.53L4.8 0.77C4.8 0.98 4.87 1.27 4.99 1.64L11.77 22.12L18.72 1.55C18.83 1.2 18.89 0.87 18.89 0.53L21.23 0.53C20.99 0.94 20.81 1.31 20.7 1.64L12.76 25.43C12.68 25.65 12.61 26.01 12.56 26.49L8.61 26.49C8.55 26.13 8.47 25.77 8.35 25.43L0.57 1.83C0.48 1.61 0.29 1.16 0.01 0.53L0 0.53ZM51.06 14.06C54.21 13.44 56.63 11.02 56.63 7.55C56.63 3.01 52.84 0.53 48.61 0.53L40.86 0.53C40.97 0.93 41.03 1.34 41.03 1.78L41.03 25.24C41.03 25.74 40.97 26.17 40.86 26.49L45.47 26.49C45.36 26.08 45.3 25.66 45.31 25.24L45.31 14.46L46.78 14.62L54.51 26.49L59.15 26.49L51.06 14.06ZM50.26 12.08C49.42 12.68 48.42 12.97 47.27 12.97L45.3 12.97L45.3 2.42L47.06 2.42C48.57 2.42 49.74 2.79 50.58 3.55C51.72 4.59 52.3 5.99 52.3 7.75C52.3 9.65 51.62 11.09 50.26 12.08ZM98.12 25.41L89.51 1.39C89.42 1.11 89.36 0.82 89.35 0.53L85.62 0.53C85.62 0.84 85.57 1.16 85.45 1.49L77.11 25.41C77 25.75 76.82 26.11 76.59 26.49L78.99 26.49C78.98 26.12 79.03 25.76 79.14 25.41L81.61 18.35L91.12 18.35L93.56 25.41C93.69 25.79 93.75 26.15 93.75 26.49L98.74 26.49C98.45 26.08 98.24 25.71 98.12 25.41ZM82.26 16.45L86.28 4.72L90.41 16.45L82.26 16.45Z" fill="#3F3F3F" fill-opacity="1.000000" fill-rule="evenodd"/>
</svg>
