<svg width="101.447144" height="27.875366" viewBox="0 0 101.447 27.8754" fill="none" xmlns="http://www.w3.org/2000/svg" xmlns:xlink="http://www.w3.org/1999/xlink">
	<desc>
			Created with Pixso.
	</desc>
	<defs/>
	<path id="path10" d="M0 0.01C6.05 0.01 12.1 0.01 18.15 0C18.15 1.66 18.16 3.31 18.14 4.97C13.87 4.96 9.6 4.96 5.32 4.97C5.33 7.04 5.32 9.12 5.33 11.19C9.07 11.19 12.81 11.19 16.55 11.19C16.57 12.84 16.55 14.49 16.56 16.14C12.82 16.13 9.07 16.14 5.33 16.13C5.32 20.04 5.32 23.95 5.33 27.86C3.55 27.84 1.78 27.84 0 27.86C-0.01 18.58 0 9.29 0 0.01Z" fill="#3F3F3F" fill-opacity="1.000000" fill-rule="nonzero"/>
	<path id="path12" d="M21.68 27.86C21.67 18.57 21.67 9.29 21.68 0C27.93 0.02 34.18 0.01 40.43 0C40.44 1.66 40.43 3.31 40.44 4.96C35.92 4.96 31.41 4.96 26.89 4.97C26.91 6.91 26.9 8.86 26.9 10.8C31.05 10.79 35.19 10.79 39.34 10.79C39.32 12.44 39.34 14.09 39.33 15.74C35.19 15.74 31.04 15.74 26.9 15.73C26.89 18.12 26.91 20.5 26.89 22.88C31.61 22.9 36.33 22.89 41.05 22.89C41.06 24.54 41.06 26.2 41.05 27.85C34.59 27.86 28.13 27.84 21.68 27.86Z" fill="#3F3F3F" fill-opacity="1.000000" fill-rule="nonzero"/>
	<path id="path14" d="M45.05 0C46.93 0.01 48.81 0.01 50.69 0C54.08 6.47 57.47 12.94 60.87 19.41C60.88 12.94 60.88 6.48 60.87 0.01C62.52 0 64.18 0.01 65.84 0C65.85 9.29 65.84 18.57 65.84 27.86C64.07 27.85 62.29 27.85 60.52 27.85C57.05 21.22 53.56 14.6 50.06 7.98C50.07 14.61 50.07 21.23 50.06 27.86C48.39 27.85 46.72 27.84 45.05 27.87C45.06 18.58 45.06 9.29 45.05 0Z" fill="#3F3F3F" fill-opacity="1.000000" fill-rule="nonzero"/>
	<path id="path16" d="M70.93 0C74.8 0.01 78.67 0 82.54 0.01C84.66 0.04 86.83 0.65 88.47 2.08C90.18 3.44 91.18 5.5 91.81 7.58C92.34 9.47 92.53 11.44 92.56 13.4C92.49 16.43 92.06 19.53 90.69 22.25C89.83 24.14 88.39 25.77 86.59 26.77C85.28 27.5 83.77 27.81 82.28 27.85C78.5 27.87 74.72 27.83 70.93 27.86C70.91 18.58 70.93 9.29 70.93 0ZM76.2 4.86C76.19 10.9 76.19 16.95 76.2 23C77.88 22.99 79.56 23 81.24 22.99C81.93 22.97 82.63 22.89 83.27 22.6C84.5 22.09 85.37 20.97 85.95 19.79C86.93 17.64 87.14 15.21 87.08 12.87C87.02 10.62 86.68 8.22 85.23 6.43C84.35 5.33 82.9 4.97 81.57 4.88C79.78 4.84 77.99 4.88 76.2 4.86Z" fill="#3F3F3F" fill-opacity="1.000000" fill-rule="nonzero"/>
	<path id="path18" d="M96.12 27.87C96.1 18.58 96.1 9.29 96.12 0C97.89 0.02 99.66 0 101.44 0C101.44 9.29 101.45 18.57 101.43 27.85C99.66 27.86 97.89 27.83 96.12 27.87Z" fill="#3F3F3F" fill-opacity="1.000000" fill-rule="nonzero"/>
</svg>
