<svg width="88.749214" height="35.170532" viewBox="0 0 88.7492 35.1705" fill="none" xmlns="http://www.w3.org/2000/svg" xmlns:xlink="http://www.w3.org/1999/xlink">
	<desc>
			Created with Pixso.
	</desc>
	<defs/>
	<path id="path2495" d="M74.69 21.51C74.66 21.34 74.66 21.2 75.49 20.94C76.32 20.68 78.33 20 79.56 19.32C80.78 18.64 80.98 18.54 81.27 18.74C81.56 18.92 81.48 19.39 81.48 19.72L81.48 23.03C81.92 22.3 83.4 19.85 84.56 19.13C85.48 18.56 85.81 18.52 86.37 18.5C87.06 18.49 88.67 18.91 88.74 20.61C88.8 21.95 87.81 22.48 87.19 22.4C86.69 22.33 86.33 21.87 86.03 21.4C85.73 20.93 85.26 20.65 84.78 20.82C84.31 20.98 81.64 22.71 81.49 25.17C81.38 26.98 81.49 32.63 81.49 32.63C81.49 33.48 81.82 33.81 82.2 34.04C82.58 34.27 83.98 34.29 84.37 34.34C84.77 34.4 84.76 34.49 84.76 34.61C84.76 34.74 84.76 34.79 84.4 34.79L75.03 34.79C74.73 34.79 74.61 34.74 74.61 34.56C74.61 34.31 75 34.36 75.3 34.31C75.6 34.27 77.18 34.4 77.64 33.61C77.97 33.08 77.93 32.24 77.93 32.24L77.88 22.33C77.88 21.53 77.65 21.41 77.43 21.28C77.21 21.16 76.84 21.09 76.06 21.35C75.33 21.59 74.83 21.82 74.69 21.51Z" fill="#3F3F3F" fill-opacity="1.000000" fill-rule="nonzero"/>
	<path id="path2497" d="M41.89 21.51C41.77 21.27 42 21.11 42.7 20.93C43.47 20.72 45.17 20.21 46.52 19.44C47.87 18.68 48.1 18.6 48.38 18.7C48.67 18.79 48.64 19.3 48.64 19.7L48.64 32.54C48.64 33.26 48.74 33.55 49.06 33.85C49.39 34.15 50.21 34.33 51.27 34.33C51.75 34.33 51.89 34.39 51.89 34.59C51.89 34.79 51.75 34.79 51.55 34.79L42.25 34.79C41.96 34.79 41.89 34.67 41.89 34.55C41.89 34.4 42.02 34.3 42.45 34.3C42.82 34.3 44.5 34.43 44.89 33.55C45.03 33.22 45.1 32.75 45.1 32.32L45.1 22.14C45.1 21.37 44.51 21.02 43.81 21.19C43 21.38 42.06 21.83 41.89 21.51Z" fill="#3F3F3F" fill-opacity="1.000000" fill-rule="nonzero"/>
	<path id="path2499" d="M46.64 12.64C47.9 12.64 48.93 11.61 48.93 10.35C48.93 9.09 47.9 8.06 46.64 8.06C45.38 8.06 44.35 9.09 44.35 10.35C44.35 11.61 45.38 12.64 46.64 12.64Z" fill="#3F3F3F" fill-opacity="1.000000" fill-rule="nonzero"/>
	<path id="path2501" d="M57.82 27.19C58.28 31.35 60.76 34.59 63.83 34.05C66.91 33.51 68.45 30.57 68.08 25.86C67.7 21.07 65.33 18.68 62.15 18.97C58.85 19.27 57.36 23.03 57.82 27.19ZM60.87 18.24C64.83 17.5 70.47 18.37 71.76 24.58C73.04 30.78 68.77 34.09 65.06 34.89C61.44 35.68 55.29 35.12 54.18 28.44C53.17 22.45 57.52 18.86 60.87 18.24Z" fill="#3F3F3F" fill-opacity="1.000000" fill-rule="nonzero"/>
	<path id="path2503" d="M13.92 33.79L16.22 33.79C24.78 33.79 27.07 33 30.08 29C33.09 25 33.45 19.26 33.45 17.31C33.45 15.37 32.94 10.5 29.93 6.38C26.91 2.26 21.89 1.19 17.49 1.19L13.91 1.19C13.06 1.19 13.01 1.57 13.01 2.16L13.01 33.04C13.01 33.71 13.25 33.79 13.92 33.79ZM0 34.51C0 34.2 0.4 34.15 0.78 34.14C5.13 34.01 5.94 33.86 6.44 33.34C6.71 33.06 7.11 32.83 7.11 30.81L7.11 3.05C7.11 0.55 4.08 0.95 1.95 0.73C1.19 0.65 1.13 0.55 1.13 0.33C1.13 0.12 1.27 0.01 1.67 0L19.21 0C38.5 0 39.49 14.1 39.49 17.86C39.49 25.94 34.15 34.83 22.98 34.83L0.56 34.83C0.28 34.83 0 34.79 0 34.51Z" fill="#3F3F3F" fill-opacity="1.000000" fill-rule="nonzero"/>
</svg>
