<svg width="168.635010" height="22.431885" viewBox="0 0 168.635 22.4319" fill="none" xmlns="http://www.w3.org/2000/svg" xmlns:xlink="http://www.w3.org/1999/xlink">
	<desc>
			Created with Pixso.
	</desc>
	<defs/>
	<path id="Vector" d="M125.63 21.89L120.4 12.71C122.71 11.6 124.19 9.26 124.19 6.7C124.19 3.01 121.19 0 117.49 0L106.31 0L106.31 21.89L111.28 21.89L111.28 13.39L115.24 13.39L120.08 21.89L125.63 21.89ZM111.2 9.17L111.2 4.24L116.56 4.24L116.54 4.25C118.17 4.33 119.21 5.28 119.21 6.71C119.21 8.12 118.1 9.11 116.44 9.17L111.2 9.17L111.2 9.17ZM86 21.89L86 0L102.35 0L102.35 4.18L91.11 4.18L91.11 8.56L100.96 8.56L100.96 12.82L91.11 12.82L91.11 17.49L102.91 17.49L102.91 21.89L86 21.89ZM62.68 21.89L57.45 12.71C59.76 11.6 61.24 9.26 61.24 6.7C61.24 3.01 58.24 0 54.54 0L43.36 0L43.36 21.89L48.33 21.89L48.33 13.39L52.29 13.39L57.13 21.89L62.68 21.89ZM48.25 9.17L48.25 4.24L53.61 4.24L53.59 4.25C55.22 4.33 56.26 5.28 56.26 6.71C56.26 8.12 55.15 9.11 53.49 9.17L48.25 9.17L48.25 9.17ZM30.1 22.43C36.09 22.43 39.66 18.99 39.66 13.22L39.66 0.02L34.55 0.02L34.55 12.88C34.55 16 32.93 17.78 30.1 17.78L30.1 17.78C27.27 17.78 25.65 16 25.65 12.88L25.65 0.02L20.54 0.02L20.54 13.22C20.54 18.99 24.12 22.43 30.1 22.43L30.1 22.43L30.1 22.43ZM13.86 9.77C16.81 10.77 18.25 13.28 18.25 15.7C18.25 19.1 15.48 21.88 12.08 21.89L0 21.89L0 0L11.12 0C14.02 0.03 16.35 2.38 16.36 5.28C16.36 7.11 15.42 8.8 13.86 9.77L13.86 9.77ZM5.01 17.8L10.59 17.8C12.35 17.8 13.27 16.49 13.27 15.2C13.27 14.16 12.44 12.69 10.59 12.69L5.01 12.69L5.01 17.8ZM9.1 8.61C10.38 8.61 11.39 7.61 11.39 6.35C11.39 5.12 10.34 4.08 9.1 4.08L5.01 4.08L5.01 8.61L9.1 8.61Z" fill="#000000" fill-opacity="1.000000" fill-rule="nonzero"/>
	<path id="Vector" d="M78.87 9.76C81.82 10.77 83.25 13.27 83.25 15.69C83.25 19.1 80.49 21.87 77.08 21.88L65 21.88L65 0L76.13 0C79.03 0.02 81.36 2.38 81.37 5.27C81.37 7.1 80.42 8.8 78.87 9.76L78.87 9.76ZM70.02 17.8L75.6 17.8C77.36 17.8 78.27 16.49 78.27 15.2C78.27 14.15 77.44 12.69 75.6 12.69L70.02 12.69L70.02 17.8ZM74.1 8.6C75.39 8.6 76.4 7.61 76.4 6.34C76.4 5.11 75.35 4.08 74.1 4.08L70.02 4.08L70.02 8.6L74.1 8.6Z" fill="#000000" fill-opacity="1.000000" fill-rule="nonzero"/>
	<path id="Vector" d="M147.27 21.89L142.04 12.71C144.36 11.6 145.83 9.26 145.83 6.7C145.83 3 142.83 0 139.14 0L127.96 0L127.96 21.89L132.93 21.89L132.93 13.39L136.89 13.39L141.73 21.89L147.27 21.89L147.27 21.89ZM132.85 9.17L132.85 4.24L138.21 4.24L138.19 4.25C139.82 4.33 140.86 5.28 140.86 6.71C140.86 8.12 139.74 9.11 138.08 9.17L132.85 9.17L132.85 9.17ZM154.54 21.89L154.54 12.97L145.86 0L152.24 0L157.23 7.53L162.25 0L168.63 0L159.93 12.97L159.93 21.89L154.54 21.89Z" fill="#000000" fill-opacity="1.000000" fill-rule="nonzero"/>
</svg>
