<svg width="142.349915" height="22.376953" viewBox="0 0 142.35 22.377" fill="none" xmlns="http://www.w3.org/2000/svg" xmlns:xlink="http://www.w3.org/1999/xlink">
	<desc>
			Created with Pixso.
	</desc>
	<defs/>
	<path id="path6" d="M20.52 16.38C20.5 16.41 20.46 16.48 20.45 16.53C18.61 20.01 15 22.37 10.88 22.37C4.9 22.37 0 17.37 0 11.18C0 5.04 4.9 0 10.88 0C15.01 0 18.64 2.41 20.46 5.94C20.52 6.01 20.53 6.04 20.58 6.14C20.6 6.16 17.11 8.68 17.08 8.63C17.06 8.56 17.04 8.51 17.01 8.48C16 5.97 13.62 4.3 10.88 4.35C7.22 4.39 4.2 7.42 4.2 11.18C4.2 14.98 7.22 18.05 10.88 18.05C13.53 18.05 15.85 16.41 16.9 14.1C16.96 14.01 16.97 13.94 17.01 13.87L20.52 16.38Z" fill="#3F3F3F" fill-opacity="1.000000" fill-rule="evenodd"/>
	<path id="path10" d="M25.03 0.2L29.22 0.2L29.22 8.02L40.22 8.02L40.22 0.2L44.44 0.2L44.44 21.95L40.22 21.95L40.22 12.39L29.22 12.39L29.22 21.95L25.03 21.95L25.03 0.2Z" fill="#3F3F3F" fill-opacity="1.000000" fill-rule="evenodd"/>
	<path id="path14" d="M103.57 21.95L103.57 0.2L118.78 0.2L118.78 4.59L107.81 4.59L107.81 8.94L117.94 8.94L117.94 13.28L107.81 13.28L107.81 17.62L120.33 17.62L120.33 21.95L103.57 21.95Z" fill="#3F3F3F" fill-opacity="1.000000" fill-rule="evenodd"/>
	<path id="path18" d="M126.27 21.95L126.27 0.2L130.53 0.2L130.53 17.62L142.35 17.62L142.35 21.95L126.27 21.95Z" fill="#3F3F3F" fill-opacity="1.000000" fill-rule="evenodd"/>
	<path id="path22" d="M80.71 21.95L80.58 21.95L76.46 21.95L76.46 0.2L76.76 0.2L82.37 0.2L91.68 13.28L91.68 0.2L95.9 0.2L95.9 21.95L92.53 21.95L80.71 5.55L80.71 21.95Z" fill="#3F3F3F" fill-opacity="1.000000" fill-rule="evenodd"/>
	<path id="path26" d="M60.43 4.59L56.72 13.28L64.32 13.28L60.43 4.59ZM54.81 17.62L52.87 21.95L47.83 21.95L57.47 0.2L63.36 0.2L73.07 21.95L68.03 21.95L66.07 17.62L54.81 17.62Z" fill="#3F3F3F" fill-opacity="1.000000" fill-rule="evenodd"/>
</svg>
